<svg xmlns="http://www.w3.org/2000/svg" xmlns:xlink="http://www.w3.org/1999/xlink" viewBox="0 0 186.67 171.33"><defs><style>.cls-1{fill:none;}.cls-2{isolation:isolate;}.cls-3{clip-path:url(#clip-path);}.cls-4{opacity:0.25;fill:url(#radial-gradient);}.cls-11,.cls-4,.cls-6,.cls-7{mix-blend-mode:multiply;}.cls-5{clip-path:url(#clip-path-2);}.cls-6{fill:url(#radial-gradient-2);}.cls-8{fill:url(#radial-gradient-3);}.cls-9{fill:#c00;}.cls-10{clip-path:url(#clip-path-3);}.cls-11{fill:url(#radial-gradient-4);}.cls-12{fill:url(#radial-gradient-5);}</style><clipPath id="clip-path"><rect class="cls-1" width="186.67" height="171.33"/></clipPath><radialGradient id="radial-gradient" cx="15.13" cy="3480.74" r="84.01" gradientTransform="translate(77.67 -186.53) scale(1.46 0.1)" gradientUnits="userSpaceOnUse"><stop offset="0" stop-color="#787878"/><stop offset="0.07" stop-color="#8f8f8f"/><stop offset="0.18" stop-color="#b2b2b2"/><stop offset="0.31" stop-color="#cecece"/><stop offset="0.44" stop-color="#e4e4e4"/><stop offset="0.59" stop-color="#f3f3f3"/><stop offset="0.76" stop-color="#fcfcfc"/><stop offset="1" stop-color="#fff"/></radialGradient><clipPath id="clip-path-2"><path id="_Compound_Clipping_Path_" data-name="&lt;Compound Clipping Path&gt;" class="cls-1" d="M57.75,46.91A50.91,50.91,0,0,1,139,106.21l-2.29,4.45,1.3,4.84,4.27,16-16-4.27-4.84-1.3L117,128.18a50.91,50.91,0,0,1-59.3-81.26m-9.17-9.17a63.88,63.88,0,0,0,74.4,102l37.65,10.09-10.09-37.65a63.88,63.88,0,0,0-102-74.4Z"/></clipPath><radialGradient id="radial-gradient-2" cx="145.96" cy="492.7" r="245.01" gradientTransform="matrix(0.99, -0.26, 0.23, 0.9, -107.72, -237.97)" gradientUnits="userSpaceOnUse"><stop offset="0.22" stop-color="#0062ca"/><stop offset="0.3" stop-color="#117dd9"/><stop offset="0.48" stop-color="#3bbeff"/><stop offset="0.53" stop-color="#60caff"/><stop offset="0.62" stop-color="#90daff"/><stop offset="0.7" stop-color="#b8e7ff"/><stop offset="0.78" stop-color="#d7f2ff"/><stop offset="0.86" stop-color="#edf9ff"/><stop offset="0.93" stop-color="#fafdff"/><stop offset="1" stop-color="#fff"/></radialGradient><radialGradient id="radial-gradient-3" cx="223.06" cy="459.3" r="201.09" gradientTransform="matrix(0.99, -0.26, 0.23, 0.9, -107.72, -237.97)" gradientUnits="userSpaceOnUse"><stop offset="0.22" stop-color="#bd01ff"/><stop offset="0.29" stop-color="#d501d2"/><stop offset="0.38" stop-color="#ec00a7"/><stop offset="0.44" stop-color="#fa008c"/><stop offset="0.48" stop-color="#ff0082"/><stop offset="0.53" stop-color="#ff1f91"/><stop offset="0.66" stop-color="#ff6eb8"/><stop offset="0.78" stop-color="#ffacd6"/><stop offset="0.88" stop-color="#ffd9ec"/><stop offset="0.96" stop-color="#fff5fa"/><stop offset="1" stop-color="#fff"/></radialGradient><clipPath id="clip-path-3"><path id="_Compound_Clipping_Path_2" data-name="&lt;Compound Clipping Path&gt;" class="cls-1" d="M110.54,67.32a23.75,23.75,0,0,1-27.66,37.91l-2.08-1.07-2.26.6-7.44,2,2-7.44.6-2.26L72.63,95a23.75,23.75,0,0,1,37.91-27.66m7.76-7.76A34.13,34.13,0,0,0,63.83,99.31l-5.39,20.11L78.56,114a34.13,34.13,0,0,0,39.75-54.47Z"/></clipPath><radialGradient id="radial-gradient-4" cx="-606.49" cy="234.97" r="130.9" gradientTransform="matrix(-0.99, -0.26, -0.23, 0.9, -480.83, -237.97)" xlink:href="#radial-gradient-2"/><radialGradient id="radial-gradient-5" cx="-565.31" cy="217.12" r="107.43" gradientTransform="matrix(-0.99, -0.26, -0.23, 0.9, -480.83, -237.97)" xlink:href="#radial-gradient-3"/></defs><title>logo</title><g class="cls-2"><g id="Design"><g class="cls-3"><g id="_Group_" data-name="&lt;Group&gt;"><ellipse id="_Path_" data-name="&lt;Path&gt;" class="cls-4" cx="99.78" cy="161.55" rx="122.72" ry="8.4"/><g id="_Group_2" data-name="&lt;Group&gt;"><g id="_Clip_Group_" data-name="&lt;Clip Group&gt;"><g class="cls-5"><g id="_Group_3" data-name="&lt;Group&gt;"><path id="_Path_2" data-name="&lt;Path&gt;" class="cls-6" d="M54.82,182.41h0c-.67-4,19.51-3.68,17.85-7.72C63.25,151.73,67.83,110.17,97,91s61.56-21.47,85.18-11.82c.57.23,1.12.5,1.68.75l-1.71-6.58a196.86,196.86,0,0,0-62-23.25c-41.65-7.9-82.9-1.57-115,12.9L36,181.68a58.14,58.14,0,0,1,9.38-.53A48,48,0,0,1,54.82,182.41Z"/><g id="_Group_4" data-name="&lt;Group&gt;" class="cls-7"><path id="_Path_3" data-name="&lt;Path&gt;" class="cls-8" d="M-.78,40.24l22,84.59c19.52,6.09,25.83,9,38.28,24.64,5.4,6.79,10.58,16.5,8.7,25.6l132.44-30.52L163.68,2.34c-2.84-.92-5.67-1.78-8.5-2.6Z"/></g><g id="_Group_5" data-name="&lt;Group&gt;" class="cls-7"><path id="_Path_4" data-name="&lt;Path&gt;" class="cls-9" d="M125.19,7.52-.78,40.24,32.93,170.06c19.09-5.9,37.3-1.85,51.68,4.61l116-30.12L171,30.4A254.74,254.74,0,0,0,125.19,7.52Z"/></g></g></g></g><g id="_Clip_Group_2" data-name="&lt;Clip Group&gt;"><g class="cls-10"><g id="_Group_6" data-name="&lt;Group&gt;"><path id="_Path_5" data-name="&lt;Path&gt;" class="cls-11" d="M115,136.84h0c.36-2.14-10.42-2-9.53-4.13,5-12.26,2.6-34.46-13-44.71S59.57,76.54,46.95,81.69c-.31.13-.6.27-.9.4L47,78.58A105.18,105.18,0,0,1,80.1,66.16c22.25-4.22,44.29-.84,61.42,6.89l-16.47,63.41a31.06,31.06,0,0,0-5-.28A25.62,25.62,0,0,0,115,136.84Z"/><g id="_Group_7" data-name="&lt;Group&gt;" class="cls-7"><path id="_Path_6" data-name="&lt;Path&gt;" class="cls-12" d="M144.68,60.89l-11.74,45.19c-10.43,3.25-13.8,4.8-20.45,13.17-2.89,3.63-5.65,8.81-4.65,13.68L37.09,116.61l19.73-76c1.51-.49,3-1,4.54-1.39Z"/></g><g id="_Group_8" data-name="&lt;Group&gt;" class="cls-7"><path id="_Path_7" data-name="&lt;Path&gt;" class="cls-9" d="M77.38,43.41l67.3,17.48-18,69.36c-10.2-3.15-19.93-1-27.61,2.46l-62-16.09,15.84-61A136.1,136.1,0,0,1,77.38,43.41Z"/></g></g></g></g></g></g></g></g></g></svg>